<svg width="512" height="384" viewBox="0 0 512 384" fill="none" xmlns="http://www.w3.org/2000/svg">
<path d="M499.99 112H440.12L423.48 70.4C406.38 27.63 365.57 0 319.5 0H192.5C146.44 0 105.62 27.63 88.51 70.4L71.87 112H12.01C4.2 112 -1.53001 119.34 0.369995 126.91L6.36999 150.91C7.69999 156.25 12.5 160 18.01 160H38.08C24.65 171.73 16 188.78 16 208V256C16 272.12 22.16 286.67 32 297.93V352C32 369.67 46.33 384 64 384H96C113.67 384 128 369.67 128 352V320H384V352C384 369.67 398.33 384 416 384H448C465.67 384 480 369.67 480 352V297.93C489.84 286.68 496 272.13 496 256V208C496 188.78 487.35 171.73 473.93 160H494C499.51 160 504.31 156.25 505.64 150.91L511.64 126.91C513.53 119.34 507.8 112 499.99 112ZM147.93 94.17C155.22 75.95 172.87 64 192.5 64H319.5C339.13 64 356.78 75.95 364.07 94.17L384 144H128L147.93 94.17ZM96 255.8C76.8 255.8 64 243.04 64 223.9C64 204.76 76.8 192 96 192C115.2 192 144 220.71 144 239.85C144 258.99 115.2 255.8 96 255.8ZM416 255.8C396.8 255.8 368 258.99 368 239.85C368 220.71 396.8 192 416 192C435.2 192 448 204.76 448 223.9C448 243.04 435.2 255.8 416 255.8Z" fill="#F2AF02"/>
</svg>
